<?xml version="1.0" encoding="UTF-8" standalone="no"?>
<!DOCTYPE svg PUBLIC "-//W3C//DTD SVG 1.1//EN" "http://www.w3.org/Graphics/SVG/1.1/DTD/svg11.dtd">
<svg xmlns="http://www.w3.org/2000/svg" version="1.1" viewBox="0.00 0.00 383.00 385.00" width="64">
    <g fill="#282e34">
        <path d="
            M 1.22 0.00
            L 0.00 7.33
            L 0.00 0.00
            L 1.22 0.00
            Z"
            />
        <path d="
            M 60.22 0.00
            L 125.02 32.85
            A 0.39 0.39 0.0 0 0 125.59 32.50
            L 125.59 11.39
            A 1.00 1.00 0.0 0 0 125.02 10.49
            L 103.53 0.00
            L 194.39 0.00
            Q 193.44 3.61 193.44 8.56
            Q 193.41 54.67 193.43 100.58
            A 0.79 0.78 -13.6 0 1 193.00 101.28
            L 69.55 162.97
            A 0.47 0.47 0.0 0 1 68.87 162.55
            L 68.87 118.58
            A 0.96 0.95 -77.2 0 0 68.34 117.72
            L 46.79 106.95
            A 0.31 0.31 0.0 0 0 46.34 107.23
            L 46.34 184.54
            A 1.97 1.96 -76.9 0 0 47.43 186.30
            L 124.97 225.06
            A 0.43 0.43 0.0 0 0 125.59 224.67
            L 125.59 203.34
            A 0.75 0.73 -77.4 0 0 125.18 202.67
            L 80.82 180.50
            A 0.35 0.35 0.0 0 1 80.82 179.88
            L 203.89 118.38
            Q 204.39 118.13 204.86 118.42
            C 206.26 119.31 208.04 120.43 209.19 121.01
            Q 267.97 150.42 326.95 179.88
            A 0.31 0.31 0.0 0 1 326.95 180.43
            L 282.71 202.54
            A 0.82 0.80 77.2 0 0 282.26 203.27
            L 282.26 224.78
            A 0.33 0.33 0.0 0 0 282.74 225.08
            L 361.00 185.97
            A 0.66 0.65 77.0 0 0 361.36 185.38
            L 361.36 107.73
            A 0.65 0.64 76.9 0 0 360.43 107.15
            L 339.23 117.75
            A 0.85 0.84 -12.9 0 0 338.75 118.51
            L 338.75 162.70
            Q 338.75 163.25 338.26 163.01
            Q 278.20 132.92 247.90 117.88
            Q 241.64 114.77 232.65 109.55
            Q 226.01 105.69 216.99 101.65
            A 1.47 1.46 12.3 0 1 216.13 100.32
            Q 216.18 45.57 216.09 9.01
            Q 216.08 3.82 214.25 0.00
            L 303.71 0.00
            L 282.73 10.40
            A 0.86 0.84 77.4 0 0 282.25 11.17
            L 282.25 32.55
            A 0.34 0.34 0.0 0 0 282.74 32.86
            Q 312.97 17.72 343.22 2.62
            Q 344.83 1.81 346.66 0.00
            L 383.00 0.00
            L 383.00 5.85
            L 260.10 66.82
            Q 259.54 67.09 259.54 66.47
            L 259.54 22.80
            A 1.42 1.41 -76.8 0 0 258.76 21.53
            L 237.63 10.97
            A 0.46 0.46 0.0 0 0 236.97 11.38
            L 236.97 88.80
            A 1.43 1.42 -77.0 0 0 237.76 90.08
            L 315.54 128.95
            A 0.41 0.41 0.0 0 0 316.14 128.58
            L 316.14 107.40
            A 1.08 1.08 0.0 0 0 315.55 106.44
            L 271.53 84.44
            A 0.45 0.45 0.0 0 1 271.53 83.63
            L 383.00 27.95
            L 383.00 51.36
            Q 379.68 52.27 376.59 53.82
            Q 346.67 68.82 316.85 83.75
            A 0.34 0.34 0.0 0 0 316.85 84.35
            L 338.06 94.95
            A 1.48 1.48 0.0 0 0 339.40 94.95
            L 383.00 73.18
            L 383.00 198.47
            Q 379.51 199.38 376.27 201.00
            Q 318.13 230.08 260.13 259.11
            A 0.40 0.40 0.0 0 1 259.55 258.75
            L 259.55 215.16
            Q 259.55 214.15 258.64 213.69
            L 237.64 203.20
            Q 236.98 202.87 236.98 203.61
            L 236.98 280.97
            A 1.56 1.55 -76.7 0 0 237.83 282.36
            L 315.56 321.20
            A 0.41 0.40 13.5 0 0 316.15 320.84
            L 316.15 299.69
            A 1.16 1.16 0.0 0 0 315.50 298.65
            L 271.53 276.67
            A 0.41 0.40 -44.6 0 1 271.54 275.95
            L 383.00 220.24
            L 383.00 243.02
            L 316.72 276.01
            A 0.31 0.30 -45.3 0 0 316.72 276.56
            L 338.25 287.32
            A 1.06 1.04 44.4 0 0 339.20 287.32
            L 383.00 265.41
            L 383.00 385.00
            L 347.08 385.00
            L 360.52 378.47
            Q 361.36 378.06 361.36 377.13
            L 361.36 299.45
            A 0.29 0.28 -13.2 0 0 360.95 299.20
            L 339.55 309.89
            A 1.46 1.45 76.8 0 0 338.75 311.19
            L 338.75 355.01
            A 0.35 0.35 0.0 0 1 338.24 355.32
            Q 302.72 337.52 248.04 310.20
            Q 243.46 307.91 232.82 301.91
            Q 224.89 297.43 217.24 294.05
            A 1.86 1.83 12.2 0 1 216.14 292.37
            L 216.14 170.44
            Q 216.14 169.77 216.74 170.07
            L 259.03 191.21
            Q 259.56 191.47 260.08 191.21
            L 281.57 180.47
            A 0.28 0.28 0.0 0 0 281.57 179.97
            Q 249.17 163.75 241.82 160.05
            C 238.07 158.17 234.09 155.31 230.67 153.58
            Q 217.92 147.14 205.23 140.91
            A 1.16 1.16 0.0 0 0 204.21 140.91
            L 126.30 179.85
            A 0.35 0.35 0.0 0 0 126.30 180.47
            L 147.73 191.18
            Q 148.24 191.44 148.75 191.18
            L 193.00 169.07
            A 0.29 0.28 -13.2 0 1 193.41 169.32
            L 193.41 293.07
            A 0.44 0.43 76.8 0 1 193.17 293.46
            L 69.56 355.23
            A 0.47 0.47 0.0 0 1 68.88 354.81
            L 68.88 310.91
            A 1.16 1.16 0.0 0 0 68.23 309.87
            L 46.81 299.16
            A 0.33 0.33 0.0 0 0 46.34 299.46
            L 46.34 376.95
            A 1.61 1.60 13.1 0 0 47.24 378.39
            L 60.82 385.00
            L 23.25 385.00
            L 23.62 265.59
            A 0.43 0.43 0.0 0 1 24.24 265.20
            L 68.48 287.31
            A 1.19 1.17 -44.4 0 0 69.53 287.31
            L 90.96 276.60
            A 0.32 0.32 0.0 0 0 90.96 276.03
            L 12.89 237.02
            A 1.07 1.06 -46.1 0 0 11.90 237.04
            L 0.00 243.55
            L 0.00 219.87
            L 11.63 214.43
            A 1.87 1.83 45.5 0 1 13.25 214.46
            L 136.25 275.93
            A 0.40 0.40 0.0 0 1 136.25 276.64
            L 92.04 298.74
            Q 91.60 298.95 91.60 299.44
            L 91.60 320.82
            A 0.43 0.43 0.0 0 0 92.22 321.20
            L 170.23 282.21
            A 1.06 1.04 -13.2 0 0 170.82 281.27
            L 170.82 203.73
            A 0.56 0.55 76.8 0 0 170.02 203.23
            L 148.89 213.79
            A 1.02 1.01 76.8 0 0 148.33 214.70
            L 148.33 258.69
            A 0.45 0.45 0.0 0 1 147.68 259.09
            L 24.14 197.35
            A 1.00 0.98 -77.1 0 1 23.59 196.46
            L 23.59 73.24
            A 0.39 0.38 13.4 0 1 24.15 72.90
            L 68.17 94.90
            A 1.75 1.75 0.0 0 0 69.75 94.90
            L 90.83 84.37
            A 0.39 0.38 -45.2 0 0 90.83 83.68
            L 12.82 44.69
            A 0.84 0.83 -45.4 0 0 12.04 44.70
            L 0.00 50.89
            L 0.00 27.60
            L 11.68 22.14
            A 1.70 1.68 45.4 0 1 13.14 22.16
            L 136.43 83.78
            A 0.29 0.28 -45.3 0 1 136.43 84.29
            L 92.27 106.36
            Q 91.60 106.69 91.60 107.44
            L 91.60 128.59
            A 0.42 0.42 0.0 0 0 92.21 128.96
            L 170.23 89.97
            A 1.05 1.05 0.0 0 0 170.81 89.03
            L 170.81 11.28
            Q 170.81 10.56 170.17 10.88
            L 148.91 21.50
            A 1.09 1.08 -13.3 0 0 148.31 22.47
            L 148.31 66.78
            A 0.25 0.25 0.0 0 1 147.95 67.01
            L 24.81 5.46
            Q 24.24 5.18 23.99 4.59
            L 22.00 0.00
            L 60.22 0.00
            Z"
            />
        <path d="
            M 0.00 199.36
            L 0.00 71.28
            Q 1.08 74.87 1.09 79.77
            Q 1.19 135.99 1.11 192.20
            Q 1.11 195.92 0.00 199.36
            Z"
            />
        <path d="
            M 1.76 385.00
            L 0.00 385.00
            L 0.00 263.52
            Q 1.08 268.49 1.08 271.32
            Q 1.16 324.12 1.12 376.92
            C 1.12 379.65 1.44 382.33 1.76 385.00
            Z"
            />
        <path d="
            M 305.29 385.00
            L 216.13 385.00
            L 216.12 362.86
            A 0.54 0.54 0.0 0 1 216.90 362.37
            L 259.27 383.55
            A 0.70 0.68 -44.0 0 0 259.88 383.55
            L 281.57 372.71
            A 0.27 0.26 45.3 0 0 281.57 372.24
            Q 271.07 366.89 244.09 353.45
            C 238.94 350.89 233.75 347.35 229.28 345.10
            Q 218.68 339.74 205.50 333.33
            A 1.85 1.81 44.3 0 0 203.88 333.33
            L 126.30 372.10
            A 0.36 0.36 0.0 0 0 126.30 372.74
            L 147.72 383.45
            Q 148.22 383.70 148.72 383.45
            L 192.53 361.56
            A 0.73 0.72 -13.6 0 1 193.58 362.20
            L 193.74 385.00
            L 104.71 385.00
            L 80.87 372.92
            A 0.46 0.45 45.2 0 1 80.87 372.11
            L 204.06 310.55
            Q 204.48 310.34 204.86 310.61
            Q 207.23 312.30 208.72 313.05
            Q 268.30 342.94 326.95 372.09
            A 0.36 0.36 0.0 0 1 326.95 372.73
            L 303.76 384.32
            Q 303.22 384.59 303.81 384.70
            L 305.29 385.00
            Z"
            />
    </g>
    <g fill="#343a40">
        <path d="
            M 22.00 0.00
            L 23.99 4.59
            Q 24.24 5.18 24.81 5.46
            L 147.95 67.01
            A 0.25 0.25 0.0 0 0 148.31 66.78
            L 148.31 22.47
            A 1.09 1.08 -13.3 0 1 148.91 21.50
            L 170.17 10.88
            Q 170.81 10.56 170.81 11.28
            L 170.81 89.03
            A 1.05 1.05 0.0 0 1 170.23 89.97
            L 92.21 128.96
            A 0.42 0.42 0.0 0 1 91.60 128.59
            L 91.60 107.44
            Q 91.60 106.69 92.27 106.36
            L 136.43 84.29
            A 0.29 0.28 -45.3 0 0 136.43 83.78
            L 13.14 22.16
            A 1.70 1.68 45.4 0 0 11.68 22.14
            L 0.00 27.60
            L 0.00 7.33
            L 1.22 0.00
            L 22.00 0.00
            Z"
            />
        <path d="
            M 103.53 0.00
            L 125.02 10.49
            A 1.00 1.00 0.0 0 1 125.59 11.39
            L 125.59 32.50
            A 0.39 0.39 0.0 0 1 125.02 32.85
            L 60.22 0.00
            L 103.53 0.00
            Z"
            />
        <path d="
            M 214.25 0.00
            Q 216.08 3.82 216.09 9.01
            Q 216.18 45.57 216.13 100.32
            A 1.47 1.46 12.3 0 0 216.99 101.65
            Q 226.01 105.69 232.65 109.55
            Q 241.64 114.77 247.90 117.88
            Q 278.20 132.92 338.26 163.01
            Q 338.75 163.25 338.75 162.70
            L 338.75 118.51
            A 0.85 0.84 -12.9 0 1 339.23 117.75
            L 360.43 107.15
            A 0.65 0.64 76.9 0 1 361.36 107.73
            L 361.36 185.38
            A 0.66 0.65 77.0 0 1 361.00 185.97
            L 282.74 225.08
            A 0.33 0.33 0.0 0 1 282.26 224.78
            L 282.26 203.27
            A 0.82 0.80 77.2 0 1 282.71 202.54
            L 326.95 180.43
            A 0.31 0.31 0.0 0 0 326.95 179.88
            Q 267.97 150.42 209.19 121.01
            C 208.04 120.43 206.26 119.31 204.86 118.42
            Q 204.39 118.13 203.89 118.38
            L 80.82 179.88
            A 0.35 0.35 0.0 0 0 80.82 180.50
            L 125.18 202.67
            A 0.75 0.73 -77.4 0 1 125.59 203.34
            L 125.59 224.67
            A 0.43 0.43 0.0 0 1 124.97 225.06
            L 47.43 186.30
            A 1.97 1.96 -76.9 0 1 46.34 184.54
            L 46.34 107.23
            A 0.31 0.31 0.0 0 1 46.79 106.95
            L 68.34 117.72
            A 0.96 0.95 -77.2 0 1 68.87 118.58
            L 68.87 162.55
            A 0.47 0.47 0.0 0 0 69.55 162.97
            L 193.00 101.28
            A 0.79 0.78 -13.6 0 0 193.43 100.58
            Q 193.41 54.67 193.44 8.56
            Q 193.44 3.61 194.39 0.00
            L 214.25 0.00
            Z"
            />
        <path d="
            M 346.66 0.00
            Q 344.83 1.81 343.22 2.62
            Q 312.97 17.72 282.74 32.86
            A 0.34 0.34 0.0 0 1 282.25 32.55
            L 282.25 11.17
            A 0.86 0.84 77.4 0 1 282.73 10.40
            L 303.71 0.00
            L 346.66 0.00
            Z"
            />
        <path d="
            M 383.00 5.85
            L 383.00 27.95
            L 271.53 83.63
            A 0.45 0.45 0.0 0 0 271.53 84.44
            L 315.55 106.44
            A 1.08 1.08 0.0 0 1 316.14 107.40
            L 316.14 128.58
            A 0.41 0.41 0.0 0 1 315.54 128.95
            L 237.76 90.08
            A 1.43 1.42 -77.0 0 1 236.97 88.80
            L 236.97 11.38
            A 0.46 0.46 0.0 0 1 237.63 10.97
            L 258.76 21.53
            A 1.42 1.41 -76.8 0 1 259.54 22.80
            L 259.54 66.47
            Q 259.54 67.09 260.10 66.82
            L 383.00 5.85
            Z"
            />
        <path d="
            M 0.00 219.87
            L 0.00 199.36
            Q 1.11 195.92 1.11 192.20
            Q 1.19 135.99 1.09 79.77
            Q 1.08 74.87 0.00 71.28
            L 0.00 50.89
            L 12.04 44.70
            A 0.84 0.83 -45.4 0 1 12.82 44.69
            L 90.83 83.68
            A 0.39 0.38 -45.2 0 1 90.83 84.37
            L 69.75 94.90
            A 1.75 1.75 0.0 0 1 68.17 94.90
            L 24.15 72.90
            A 0.39 0.38 13.4 0 0 23.59 73.24
            L 23.59 196.46
            A 1.00 0.98 -77.1 0 0 24.14 197.35
            L 147.68 259.09
            A 0.45 0.45 0.0 0 0 148.33 258.69
            L 148.33 214.70
            A 1.02 1.01 76.8 0 1 148.89 213.79
            L 170.02 203.23
            A 0.56 0.55 76.8 0 1 170.82 203.73
            L 170.82 281.27
            A 1.06 1.04 -13.2 0 1 170.23 282.21
            L 92.22 321.20
            A 0.43 0.43 0.0 0 1 91.60 320.82
            L 91.60 299.44
            Q 91.60 298.95 92.04 298.74
            L 136.25 276.64
            A 0.40 0.40 0.0 0 0 136.25 275.93
            L 13.25 214.46
            A 1.87 1.83 45.5 0 0 11.63 214.43
            L 0.00 219.87
            Z"
            />
        <path d="
            M 383.00 51.36
            L 383.00 73.18
            L 339.40 94.95
            A 1.48 1.48 0.0 0 1 338.06 94.95
            L 316.85 84.35
            A 0.34 0.34 0.0 0 1 316.85 83.75
            Q 346.67 68.82 376.59 53.82
            Q 379.68 52.27 383.00 51.36
            Z"
            />
        <path d="
            M 347.08 385.00
            L 305.29 385.00
            L 303.81 384.70
            Q 303.22 384.59 303.76 384.32
            L 326.95 372.73
            A 0.36 0.36 0.0 0 0 326.95 372.09
            Q 268.30 342.94 208.72 313.05
            Q 207.23 312.30 204.86 310.61
            Q 204.48 310.34 204.06 310.55
            L 80.87 372.11
            A 0.46 0.45 45.2 0 0 80.87 372.92
            L 104.71 385.00
            L 60.82 385.00
            L 47.24 378.39
            A 1.61 1.60 13.1 0 1 46.34 376.95
            L 46.34 299.46
            A 0.33 0.33 0.0 0 1 46.81 299.16
            L 68.23 309.87
            A 1.16 1.16 0.0 0 1 68.88 310.91
            L 68.88 354.81
            A 0.47 0.47 0.0 0 0 69.56 355.23
            L 193.17 293.46
            A 0.44 0.43 76.8 0 0 193.41 293.07
            L 193.41 169.32
            A 0.29 0.28 -13.2 0 0 193.00 169.07
            L 148.75 191.18
            Q 148.24 191.44 147.73 191.18
            L 126.30 180.47
            A 0.35 0.35 0.0 0 1 126.30 179.85
            L 204.21 140.91
            A 1.16 1.16 0.0 0 1 205.23 140.91
            Q 217.92 147.14 230.67 153.58
            C 234.09 155.31 238.07 158.17 241.82 160.05
            Q 249.17 163.75 281.57 179.97
            A 0.28 0.28 0.0 0 1 281.57 180.47
            L 260.08 191.21
            Q 259.56 191.47 259.03 191.21
            L 216.74 170.07
            Q 216.14 169.77 216.14 170.44
            L 216.14 292.37
            A 1.86 1.83 12.2 0 0 217.24 294.05
            Q 224.89 297.43 232.82 301.91
            Q 243.46 307.91 248.04 310.20
            Q 302.72 337.52 338.24 355.32
            A 0.35 0.35 0.0 0 0 338.75 355.01
            L 338.75 311.19
            A 1.46 1.45 76.8 0 1 339.55 309.89
            L 360.95 299.20
            A 0.29 0.28 -13.2 0 1 361.36 299.45
            L 361.36 377.13
            Q 361.36 378.06 360.52 378.47
            L 347.08 385.00
            Z"
            />
        <path d="
            M 383.00 198.47
            L 383.00 220.24
            L 271.54 275.95
            A 0.41 0.40 -44.6 0 0 271.53 276.67
            L 315.50 298.65
            A 1.16 1.16 0.0 0 1 316.15 299.69
            L 316.15 320.84
            A 0.41 0.40 13.5 0 1 315.56 321.20
            L 237.83 282.36
            A 1.56 1.55 -76.7 0 1 236.98 280.97
            L 236.98 203.61
            Q 236.98 202.87 237.64 203.20
            L 258.64 213.69
            Q 259.55 214.15 259.55 215.16
            L 259.55 258.75
            A 0.40 0.40 0.0 0 0 260.13 259.11
            Q 318.13 230.08 376.27 201.00
            Q 379.51 199.38 383.00 198.47
            Z"
            />
        <path d="
            M 23.25 385.00
            L 1.76 385.00
            C 1.44 382.33 1.12 379.65 1.12 376.92
            Q 1.16 324.12 1.08 271.32
            Q 1.08 268.49 0.00 263.52
            L 0.00 243.55
            L 11.90 237.04
            A 1.07 1.06 -46.1 0 1 12.89 237.02
            L 90.96 276.03
            A 0.32 0.32 0.0 0 1 90.96 276.60
            L 69.53 287.31
            A 1.19 1.17 -44.4 0 1 68.48 287.31
            L 24.24 265.20
            A 0.43 0.43 0.0 0 0 23.62 265.59
            L 23.25 385.00
            Z"
            />
        <path d="
            M 383.00 243.02
            L 383.00 265.41
            L 339.20 287.32
            A 1.06 1.04 44.4 0 1 338.25 287.32
            L 316.72 276.56
            A 0.31 0.30 -45.3 0 1 316.72 276.01
            L 383.00 243.02
            Z"
            />
        <path d="
            M 216.13 385.00
            L 193.74 385.00
            L 193.58 362.20
            A 0.73 0.72 -13.6 0 0 192.53 361.56
            L 148.72 383.45
            Q 148.22 383.70 147.72 383.45
            L 126.30 372.74
            A 0.36 0.36 0.0 0 1 126.30 372.10
            L 203.88 333.33
            A 1.85 1.81 44.3 0 1 205.50 333.33
            Q 218.68 339.74 229.28 345.10
            C 233.75 347.35 238.94 350.89 244.09 353.45
            Q 271.07 366.89 281.57 372.24
            A 0.27 0.26 45.3 0 1 281.57 372.71
            L 259.88 383.55
            A 0.70 0.68 -44.0 0 1 259.27 383.55
            L 216.90 362.37
            A 0.54 0.54 0.0 0 0 216.12 362.86
            L 216.13 385.00
            Z"
            />
    </g>
</svg>
